<?xml version="1.0" encoding="UTF-8" standalone="no"?>
<!-- Created with Inkscape (http://www.inkscape.org/) -->

<svg
   width="38.364578mm"
   height="38.364578mm"
   viewBox="0 0 38.364578 38.364578"
   version="1.1"
   id="svg5"
   xml:space="preserve"
   xmlns:inkscape="http://www.inkscape.org/namespaces/inkscape"
   xmlns:sodipodi="http://sodipodi.sourceforge.net/DTD/sodipodi-0.dtd"
   xmlns="http://www.w3.org/2000/svg"
   xmlns:svg="http://www.w3.org/2000/svg"><sodipodi:namedview
     id="namedview7"
     pagecolor="#ffffff"
     bordercolor="#000000"
     borderopacity="0.25"
     inkscape:showpageshadow="2"
     inkscape:pageopacity="0.0"
     inkscape:pagecheckerboard="0"
     inkscape:deskcolor="#d1d1d1"
     inkscape:document-units="mm"
     showgrid="false" /><defs
     id="defs2" /><g
     inkscape:label="Layer 1"
     inkscape:groupmode="layer"
     id="layer1"
     transform="translate(83.938807,-69.846388)"><g
       id="g1093"><circle
         style="opacity:1;fill:#ffffff;stroke:none;stroke-width:1.09775;stroke-linejoin:round"
         id="path829"
         cx="-64.756516"
         cy="89.028679"
         r="19.182291" /><g
         id="g576"
         transform="translate(-172.31684,-48.352845)"><g
           id="g562"
           transform="translate(78.5188,4.1603575)"><path
             style="fill:#b4b4b4;stroke-width:0.0846667"
             d="m 23.000909,139.94514 c -1.752817,-0.1301 -1.999466,-0.45553 -0.458172,-0.60453 0.660884,-0.0639 0.691492,-0.059 0.774168,0.12241 0.07476,0.16407 0.32696,0.20205 0.306301,0.0461 -0.02803,-0.21155 0.04583,-0.23008 0.674662,-0.16929 0.726365,0.0702 1.153207,0.19686 1.077327,0.31964 -0.101472,0.16418 -1.593027,0.34363 -2.374286,0.28565 z"
             id="path568" /><path
             style="fill:#f6921b;stroke-width:0.0846667"
             d="m 22.662243,138.17745 c -0.73094,-1.33353 -0.781657,-1.40238 -1.244261,-1.68918 -2.388689,-1.48093 -2.175306,-5.16776 0.367276,-6.34575 3.164939,-1.46634 6.428878,1.90815 4.800572,4.96317 -0.273958,0.514 -0.990098,1.30007 -1.26345,1.38683 -0.09256,0.0294 -0.496266,0.64997 -0.979393,1.50557 -0.452056,0.80057 -0.843705,1.48123 -0.870332,1.51257 -0.02663,0.0314 -0.391312,-0.5686 -0.810412,-1.33321 z m 1.781863,-2.36036 c 2.668881,-1.19036 1.743116,-5.1583 -1.173004,-5.02764 -0.833324,0.0373 -1.338506,0.25975 -1.849723,0.81435 -1.955791,2.12178 0.387831,5.38849 3.022727,4.21329 z m 4.00246,-0.89148 c -0.316569,-0.0955 -0.552882,-0.27424 -0.792963,-0.59965 l -0.205706,-0.27882 0.329363,-0.19641 0.329362,-0.19641 0.296177,0.29618 c 0.395446,0.39545 0.8497,0.37869 1.073559,-0.0396 0.140121,-0.26182 -0.04263,-0.52966 -0.797963,-1.16949 -0.725859,-0.61486 -0.9787,-0.99506 -0.978169,-1.47087 0.0012,-1.06708 1.492034,-1.46701 2.29248,-0.61497 l 0.196684,0.20936 -0.26455,0.26455 -0.264551,0.26455 -0.267019,-0.22468 c -0.404627,-0.34047 -0.931361,-0.2717 -0.931361,0.1216 0,0.0787 0.380622,0.49402 0.845826,0.92294 0.632634,0.58329 0.87014,0.861 0.942288,1.10181 0.310719,1.03709 -0.702999,1.94201 -1.803457,1.6099 z m 3.423704,-0.14085 c -0.538958,-0.26569 -0.651774,-0.5941 -0.686556,-1.99858 l -0.03093,-1.24884 h 0.383669 0.383667 l 0.02773,1.13644 c 0.03103,1.27181 0.159812,1.5729 0.672764,1.5729 0.572089,0 0.706422,-0.28334 0.739103,-1.55893 l 0.02947,-1.15041 h 0.382301 0.382301 l -0.03327,1.16417 c -0.0558,1.95285 -0.910226,2.74386 -2.250255,2.08325 z m 7.471306,-0.0142 c -1.531775,-0.98098 -0.972265,-3.39063 0.765601,-3.29723 0.36514,0.0196 0.589347,0.0829 0.783167,0.22086 0.268655,0.1913 0.271565,0.19149 0.271565,0.0183 0,-0.15108 0.05226,-0.1751 0.381,-0.1751 h 0.381 v 1.651 1.651 h -0.381 c -0.328737,0 -0.381,-0.024 -0.381,-0.1751 0,-0.17322 -0.0029,-0.17302 -0.271565,0.0183 -0.378764,0.2697 -1.19283,0.31597 -1.548768,0.088 z m 1.473641,-0.74177 c 0.961291,-0.80887 0.02068,-2.34748 -1.085429,-1.77549 -0.266872,0.138 -0.515212,0.58872 -0.515212,0.93506 0,0.85831 0.972538,1.36894 1.600641,0.84043 z m -5.833975,-1.51776 v -2.32833 h 0.381 0.381 v 2.32833 2.32833 h -0.381 -0.381 z m 1.778,0.97367 v -1.35467 h -0.211666 c -0.185461,0 -0.211667,-0.0367 -0.211667,-0.29633 0,-0.25965 0.02621,-0.29634 0.211667,-0.29634 0.206962,0 0.211666,-0.0141 0.211666,-0.635 v -0.635 h 0.377291 0.377291 l 0.02488,0.61384 c 0.0243,0.59964 0.03026,0.61445 0.257709,0.64062 0.370101,0.0426 0.350416,0.60821 -0.02117,0.60821 h -0.254 v 1.35467 1.35466 h -0.381 -0.381 z m 6.180667,-0.29634 v -1.651 h 0.381 c 0.328737,0 0.381,0.024 0.381,0.1751 0,0.17415 0.0014,0.17408 0.264817,-0.0135 0.364838,-0.25978 1.029731,-0.31718 1.395087,-0.12042 0.463537,0.24963 0.541429,0.53483 0.541429,1.98242 v 1.27837 h -0.374601 -0.3746 l -0.02757,-1.17671 c -0.0308,-1.3147 -0.115625,-1.53262 -0.596587,-1.53262 -0.646486,0 -0.827978,0.37986 -0.827978,1.73295 v 0.97638 h -0.381 -0.381 z"
             id="path566" /><path
             style="fill:#626365;stroke-width:0.0846667"
             d="m 32.66301,139.40843 c -0.547074,-0.1638 -0.923291,-0.73667 -0.923291,-1.40591 0,-1.05843 1.026923,-1.72818 1.86569,-1.21677 0.224523,0.13689 0.275167,0.14463 0.275167,0.042 0,-0.0903 0.09556,-0.12575 0.338666,-0.12575 h 0.338667 v 1.35467 1.35466 h -0.347725 c -0.274304,0 -0.337435,-0.0268 -0.29899,-0.127 0.06461,-0.16838 -0.01422,-0.16027 -0.411618,0.0423 -0.359232,0.18314 -0.463794,0.19336 -0.836566,0.0817 z m 0.871178,-0.62809 c 0.475268,-0.24578 0.553686,-1.0074 0.143409,-1.39284 -0.350439,-0.32922 -0.985196,-0.24265 -1.19495,0.16297 -0.423144,0.81827 0.272997,1.63247 1.051541,1.22987 z m 2.720148,0.61946 c -1.646066,-0.49024 -1.230208,-2.77967 0.504906,-2.77967 0.470478,0 1.089318,0.25492 1.162985,0.47908 0.06153,0.18723 -0.43743,0.37706 -0.622597,0.23686 -0.539566,-0.40853 -1.471721,0.0479 -1.471721,0.72061 0,0.69124 1.025822,1.12713 1.510934,0.64201 0.18128,-0.18128 0.671125,0.15084 0.509574,0.3455 -0.273566,0.32963 -1.07845,0.50918 -1.594081,0.35561 z m 6.472135,0.0194 c -1.21781,-0.30073 -1.442404,-1.88416 -0.371444,-2.61873 0.836163,-0.57353 2.193548,0.16255 2.193548,1.18952 v 0.23606 h -1.143 c -1.24669,0 -1.299845,0.0255 -0.895512,0.42985 0.278814,0.27881 0.734713,0.3305 1.105362,0.12531 0.285675,-0.15814 0.758312,0.0518 0.585475,0.26003 -0.256533,0.3091 -0.990921,0.49736 -1.474429,0.37796 z m -14.433895,-1.57415 v -1.56633 h -0.338667 c -0.330603,0 -0.338666,-0.007 -0.338666,-0.29634 v -0.29633 h 1.016 1.016 v 0.29122 c 0,0.27541 -0.01724,0.29265 -0.3175,0.3175 l -0.3175,0.0263 -0.02308,1.54517 -0.02308,1.54516 H 28.629326 28.29257 Z m 1.693333,0.21167 v -1.35467 h 0.254 c 0.169333,0 0.254,0.0423 0.254,0.127 0,0.16879 0.05145,0.16022 0.254,-0.0423 0.3061,-0.3061 0.680205,-0.23033 0.573844,0.11622 -0.06245,0.20346 -0.12806,0.27499 -0.228238,0.24879 -0.325356,-0.0851 -0.459786,0.2621 -0.499093,1.28898 l -0.03715,0.97067 h -0.28568 -0.285679 z m 8.720667,-0.55034 v -1.905 h 0.338666 0.338667 l 7.62e-4,1.12184 7.62e-4,1.12183 0.528426,-0.57868 c 0.513732,-0.56259 0.53854,-0.5779 0.892133,-0.55034 l 0.363706,0.0283 -0.563202,0.61618 -0.563203,0.61617 0.665163,0.69616 0.665163,0.69616 -0.372903,0.0267 c -0.367203,0.0263 -0.382344,0.0166 -0.99071,-0.635 l -0.617851,-0.66167 -0.0041,0.65617 -0.0041,0.65616 h -0.338667 -0.338666 z m 6.307666,0.55034 v -1.35467 h 0.275167 c 0.20088,0 0.275166,0.0383 0.275166,0.14176 0,0.12037 0.02956,0.11398 0.195957,-0.0423 0.211453,-0.19865 0.652634,-0.25195 0.647709,-0.0782 -0.0057,0.20288 -0.209861,0.4445 -0.375499,0.4445 -0.280096,0 -0.380906,0.35167 -0.382252,1.3335 l -0.0012,0.91016 h -0.3175 -0.3175 z m -27.018068,-0.86097 c -5.256207,-3.72272 -5.659511,-4.04919 -6.085846,-4.92634 -0.709422,-1.45957 0.197372,-2.72207 2.533785,-3.5277 1.978946,-0.68237 1.950704,-0.7457 -0.620698,-1.3918 l -1.049495,-0.26371 1.061262,-0.31441 c 1.300432,-0.38526 1.100236,-0.38733 3.196569,0.033 3.768791,0.75571 4.218477,1.45768 1.738615,2.71399 -1.725544,0.87418 -1.735507,1.08217 -0.08582,1.79138 0.527169,0.22663 0.671514,0.3254 0.656682,0.44934 -0.01046,0.0874 -0.05779,0.38746 -0.105194,0.66686 -0.0474,0.2794 -0.08647,0.66993 -0.08682,0.86784 -3.38e-4,0.1979 -0.01263,0.35983 -0.02729,0.35983 -0.01466,0 -0.499255,-0.25141 -1.076887,-0.55869 -0.984398,-0.52366 -1.062851,-0.55103 -1.251414,-0.43662 -0.324644,0.19699 -0.270823,0.24301 1.114494,0.95298 1.064114,0.54535 1.321976,0.71181 1.323379,0.85431 0.0042,0.4278 0.541852,1.26748 1.28582,2.00819 0.412015,0.41021 0.881349,0.95254 1.042966,1.20519 l 0.293849,0.45936 -0.629289,0.42464 c -0.346109,0.23355 -0.644766,0.42464 -0.663682,0.42464 -0.01891,0 -1.173161,-0.80654 -2.56499,-1.7923 z m 3.459569,-2.66644 c -0.06173,-0.0249 -0.105834,-0.19502 -0.105834,-0.40818 v -0.36548 h 1.987419 1.987418 l 0.05418,0.28879 c 0.09511,0.50698 -0.556701,0.7897 -0.75913,0.32928 -0.118803,-0.27022 -2.419021,-0.24268 -2.519956,0.0302 -0.06548,0.17702 -0.369498,0.23622 -0.644095,0.12542 z m 1.227666,-1.01829 c -0.08149,-0.0213 -0.148166,-0.094 -0.148166,-0.16161 0,-0.14509 -0.335423,-0.28803 -0.67592,-0.28803 -0.431402,0 -0.541577,-0.0781 -0.372946,-0.26446 0.07908,-0.0874 0.214072,-0.15887 0.299988,-0.15887 0.198399,0 0.204334,-0.14434 0.008,-0.19564 -0.0979,-0.0256 -0.0745,-0.0421 0.06898,-0.0485 0.158149,-0.007 0.253883,-0.0868 0.352338,-0.29331 0.252649,-0.52981 1.973063,-0.52978 2.285665,4e-5 0.103465,0.17536 0.236692,0.286 0.349375,0.29013 0.100175,0.004 0.134511,0.0259 0.0763,0.0494 -0.141143,0.057 -0.135414,0.19793 0.008,0.19793 0.06263,0 0.178579,0.0715 0.257656,0.15887 0.169824,0.18765 0.05829,0.26446 -0.384022,0.26446 -0.308558,0 -0.580176,0.13551 -0.580176,0.28944 0,0.19102 -1.021831,0.29696 -1.545167,0.1602 z"
             id="path564" /></g></g></g></g></svg>
